<svg xmlns="http://www.w3.org/2000/svg" xmlns:xlink="http://www.w3.org/1999/xlink" version="1.1" x="0px" y="0px" viewBox="0 0 100 125" enable-background="new 0 0 100 100" xml:space="preserve"><path d="M50.271,17.184c0,0,3.596-4.281,7.18-6.086c3.583-1.806,7.632-2.821,11.919-2.821c7.328,0,13.964,2.971,18.767,7.773  c4.805,4.803,7.774,11.438,7.774,18.768s-2.97,13.965-7.774,18.767L50,91.723L11.861,53.584C7.06,48.782,4.088,42.146,4.088,34.817  S7.06,20.853,11.861,16.05c4.804-4.803,11.439-7.773,18.769-7.773c4.286,0,8.335,1.016,11.919,2.821  C46.132,12.902,50.271,17.184,50.271,17.184z"/></svg>