<svg xmlns="http://www.w3.org/2000/svg" xmlns:xlink="http://www.w3.org/1999/xlink" version="1.1" x="0px" y="0px" viewBox="0 0 100 125" enable-background="new 0 0 100 100" xml:space="preserve"><path d="M50,6.987c-23.717,0-43.013,19.294-43.013,43.012S26.283,93.013,50,93.013S93.013,73.718,93.013,50S73.717,6.987,50,6.987z   M72.057,63.84c2.269,2.27,2.269,5.947,0,8.217c-1.135,1.135-2.623,1.701-4.108,1.701c-1.487,0-2.974-0.566-4.108-1.701L50,58.216  L36.159,72.057c-1.134,1.135-2.621,1.701-4.108,1.701c-1.486,0-2.973-0.566-4.108-1.701c-2.269-2.27-2.269-5.947,0-8.217  l13.84-13.841l-13.84-13.84c-2.269-2.269-2.269-5.948,0-8.217c2.27-2.269,5.947-2.269,8.217,0L50,41.782l13.84-13.84  c2.27-2.269,5.947-2.269,8.217,0c2.271,2.269,2.271,5.948,0,8.217l-13.84,13.84L72.057,63.84z"/></svg>