<svg xmlns="http://www.w3.org/2000/svg" xmlns:xlink="http://www.w3.org/1999/xlink" xml:space="preserve" version="1.1" style="shape-rendering:geometricPrecision;text-rendering:geometricPrecision;image-rendering:optimizeQuality;" viewBox="0 0 333 416.25" x="0px" y="0px" fill-rule="evenodd" clip-rule="evenodd"><defs><style type="text/css">
   
    .fil0 {fill:#949494}
   
  </style></defs><g><path class="fil0" d="M144 8c74,0 135,61 135,135 0,31 -11,60 -29,83l72 71c3,3 3,8 0,11l-14 15c-4,3 -8,3 -11,0l-72 -72c-23,17 -51,27 -81,27 -75,0 -135,-60 -135,-135 0,-74 60,-135 135,-135zm0 34c56,0 101,45 101,101 0,56 -45,101 -101,101 -56,0 -101,-45 -101,-101 0,-56 45,-101 101,-101z"/></g></svg>